# xmcd
#
# Track frame offsets:
#	150
#	14828
#	26890
#	39092
#	52579
#	65784
#	77477
#	90856
#	105422
#	119459
#	133700
#	146385
#	160095
#	173801
#	184801
#	196842
#	210219
#	223030
#	235625
#	248810
#	263701
#	279000
#	292601
#	305823
#	320840
#	336317
#
# Disc length: 4663 seconds
# Revision: 0
# Processed by: cddbd v1.5.2PL0 Copyright (c) Steve Scherf et al.
# Submitted via: dBpowerAMP V12.0
#
DISCID=6212351a
DTITLE=Various Artist - Mississippi Jook Joint Blues, disc 1
DYEAR=2016
DGENRE=Blues
TTITLE0=Louis Jordan - Do You Call That A Buddy
TTITLE1=Ollie Sheppard - Cool Kind Papa
TTITLE2=Blind Boy Fuller - Good Feelin' Blues
TTITLE3=Billie Holliday - God Bless The Child
TTITLE4=Art Tatum and Big Joe Turner - Wee Baby Blues
TTITLE5=Jay McShann - Vine Street Boogie
TTITLE6=Lil Green - Why Don't You Do Right
TTITLE7=Sammy Price - Things About Coming My Way
TTITLE8=Buddy Johnson and His Band - Boogie Woogie's Mother-In-Law
TTITLE9=Louie Jordan - T-Bone Blues
TTITLE10=Tommy McClennan - Tiger Rag
TTITLE11=The Four Clefs - Dig These Blues
TTITLE12=Andy Kirk and his Clouds of Joy - Fine And Mellow
TTITLE13=Sister Rosetta Tharpe - There Is Something Within Me
TTITLE14=Georgia white - Come Around To My House
TTITLE15=Buddy Johnson - Please Mr. Johnson
TTITLE16=John 'Sonny Boy" Williamson - I Been Dealing With The Devil
TTITLE17=Walter Davis - Come Back Baby
TTITLE18=Bill 'Jazz' Gilliam - She Belongs To Me
TTITLE19=Woody Herman - Blue Flame
TTITLE20=Memphis Slim - Beer Drinking Woman
TTITLE21=Roosevelt Sykes - Knock Me Out 
TTITLE22=Johnny Hodges - That's The Blues Old Man
TTITLE23=Big Bill Broonzy - Getting Older Every Day
TTITLE24=Count Basie with Jimmy Rushing - Goin' To Chicago Blues
TTITLE25=Buddy Jones - Red Wagon
EXTD=
EXTT0=
EXTT1=
EXTT2=
EXTT3=
EXTT4=
EXTT5=
EXTT6=
EXTT7=
EXTT8=
EXTT9=
EXTT10=
EXTT11=
EXTT12=
EXTT13=
EXTT14=
EXTT15=
EXTT16=
EXTT17=
EXTT18=
EXTT19=
EXTT20=
EXTT21=
EXTT22=
EXTT23=
EXTT24=
EXTT25=
PLAYORDER=
